<svg xmlns="http://www.w3.org/2000/svg" width="1280" height="1280" viewBox="0 0 1280 1280" version="1.1"><path d="M 955.924 258.510 C 949.091 263.191, 943.350 267.467, 943.166 268.012 C 942.983 268.557, 944.655 271.073, 946.883 273.604 C 949.111 276.135, 951.824 280.586, 952.913 283.496 C 954.001 286.406, 959.009 309.197, 964.042 334.143 C 974.449 385.732, 975.822 389.952, 985.269 399.399 C 991.203 405.333, 997.365 408.841, 1006.457 411.460 C 1022.925 416.204, 1029.496 423.320, 1033.737 441 C 1035.822 449.689, 1036.907 546.202, 1034.947 548.564 C 1033.891 549.836, 1017.463 550.023, 910.009 549.984 C 836.551 549.958, 785.299 550.316, 783.855 550.865 C 782.517 551.374, 779.753 553.638, 777.711 555.898 C 774.321 559.651, 774 560.511, 774 565.855 C 774 573.341, 776.658 577.577, 783.501 581 L 788.500 583.500 913.500 583.810 C 1005.383 584.038, 1039.957 583.814, 1044 582.963 C 1056.008 580.436, 1065.150 571.222, 1067.921 558.852 C 1069.360 552.427, 1069.492 447.260, 1068.072 438.500 C 1065.274 421.245, 1058.795 407.811, 1048.011 396.905 C 1039.710 388.511, 1031.495 383.475, 1020.500 380.042 C 1010.775 377.005, 1009.300 376.152, 1007.608 372.587 C 1006.793 370.869, 1002.055 349.087, 997.080 324.182 C 990.443 290.957, 987.230 276.984, 985.011 271.701 C 981.558 263.477, 974.128 252, 972.258 252 C 971.566 252, 971 251.550, 971 251 C 971 248.783, 967.789 250.383, 955.924 258.510 M 906.825 292.095 C 901.146 295.991, 893.023 301.501, 888.773 304.340 C 884.522 307.178, 881.035 310.016, 881.023 310.647 C 881.008 311.394, 883.941 311.918, 889.427 312.147 C 903.002 312.715, 905.145 315.338, 910.007 337.337 C 916.336 365.971, 918 373.787, 918 374.870 C 918 375.699, 900.005 376, 850.533 376 L 783.066 376 766.283 387.647 C 735.186 409.227, 736.429 408.244, 739.025 409.205 C 740.280 409.669, 783.201 409.926, 834.404 409.775 L 927.500 409.500 933.270 406.796 C 940.659 403.333, 947.966 395.864, 950.255 389.432 C 952.225 383.895, 952.622 370.550, 951.021 363.693 C 950.482 361.387, 947.971 350.050, 945.439 338.500 C 938.811 308.262, 936.564 302.764, 926.710 292.672 C 918.162 283.919, 918.719 283.935, 906.825 292.095 M 914.026 431.150 C 904.090 432.344, 896.525 436.714, 886.635 446.973 C 877.742 456.198, 874.988 461.384, 872.809 473 C 870.693 484.278, 873.759 499.340, 880.035 508.500 C 884.563 515.108, 895.168 524.551, 901.851 527.925 C 931.091 542.685, 969.045 522.610, 974.165 489.675 C 977.228 469.973, 968.503 450.179, 951.854 439.061 C 941.682 432.269, 928.194 429.448, 914.026 431.150 M 664.773 456.766 C 661.120 459.370, 656.308 462.762, 654.079 464.305 C 650.276 466.938, 650.114 467.246, 651.448 469.305 C 652.230 470.512, 653.412 473.676, 654.075 476.335 C 656.629 486.581, 651.478 497.590, 641.895 502.365 C 632.474 507.059, 621.445 505.013, 614.335 497.250 C 611.816 494.500, 610.583 493.798, 609.547 494.523 C 608.779 495.060, 603.642 498.425, 598.131 502 C 592.619 505.575, 588.085 508.785, 588.055 509.133 C 588.025 509.482, 591.243 512.991, 595.207 516.931 C 616.390 537.988, 647.144 538.114, 667.953 517.230 C 683.720 501.406, 687.571 478.202, 677.606 459.053 C 673.673 451.493, 672.470 451.279, 664.773 456.766 M 918 458.586 C 908.052 462.231, 902.883 467.695, 900.868 476.699 C 896.625 495.660, 916.369 511.098, 933.771 502.427 C 946.544 496.062, 950.678 480.206, 942.679 468.270 C 938.642 462.245, 932.754 458.926, 925.207 458.420 C 922.068 458.209, 918.825 458.284, 918 458.586 M 526.714 550.623 C 522.721 554.318, 502.689 566.926, 501.742 566.340 C 499.630 565.035, 505 571.822, 508.262 574.581 C 510.043 576.087, 514.425 578.710, 518 580.410 L 524.500 583.500 624.215 584 C 735.801 584.560, 726.467 583.829, 727.599 592.091 C 728.488 598.580, 725.458 608.652, 717.242 626.512 C 702.637 658.263, 700.318 663.105, 690.187 683 C 651.912 758.163, 603.025 839.044, 543.698 925.354 C 535.636 937.083, 529.791 946.597, 529.415 948.604 C 528.444 953.775, 529.770 958.668, 533.198 962.572 C 537.208 967.139, 540.914 969, 546 969 C 554.361 969, 557.288 966.131, 574.561 941 C 649.911 831.369, 717.232 714.502, 752.624 631.885 C 770.385 590.424, 762.350 560.650, 730.957 551.604 C 726.189 550.230, 713.034 549.998, 626.714 549.766 C 554.695 549.572, 527.599 549.804, 526.714 550.623 M 541.153 586.318 C 536.320 588.134, 531.606 593.033, 530.211 597.691 C 528.465 603.516, 528.687 622.083, 530.595 629.936 C 533.435 641.624, 539.314 652.347, 547.325 660.450 C 558.471 671.724, 565.996 675.599, 582.500 678.561 C 610.711 683.625, 637.106 673.994, 651.181 653.500 C 653.825 649.650, 657.429 642.900, 659.190 638.500 C 662.253 630.847, 662.409 629.784, 662.783 614 L 663.173 597.500 660.176 593.383 C 657.270 589.389, 650.188 585, 646.652 585 C 643.790 585, 637.664 587.949, 634.773 590.718 C 631.023 594.310, 630.063 597.848, 629.104 611.619 C 628.143 625.410, 625.960 631.680, 620.142 637.362 C 614.810 642.568, 607.168 645, 596.140 645 C 580.141 645, 571.695 640.396, 566.513 628.850 C 564.083 623.434, 563.610 620.837, 563.068 609.920 C 562.518 598.827, 562.147 596.838, 560.060 593.793 C 555.241 586.760, 547.803 583.819, 541.153 586.318 M 915.500 586.896 C 906.548 591.040, 904.014 596.705, 904.006 612.590 C 903.992 636.451, 914.229 656.974, 932.096 668.905 C 939.774 674.033, 947.340 676.840, 958.500 678.702 C 989.665 683.903, 1017.985 671.182, 1030.741 646.254 C 1036.953 634.114, 1038.399 627.661, 1038.453 611.840 C 1038.500 598.252, 1038.484 598.158, 1035.493 593.840 C 1031.669 588.320, 1024.472 584.501, 1019.610 585.413 C 1014.839 586.309, 1008.107 591.500, 1006.390 595.609 C 1005.589 597.526, 1004.575 604.585, 1004.136 611.297 C 1003.175 625.997, 1000.923 632.137, 994.384 637.894 C 988.019 643.496, 981.242 645.319, 968.692 644.805 C 960.096 644.453, 957.688 643.968, 953.312 641.708 C 943.702 636.745, 939.016 627.453, 938.332 612 C 937.727 598.336, 937.266 596.373, 933.709 592.322 C 930.615 588.798, 924.060 585.044, 921 585.044 C 920.175 585.044, 917.700 585.877, 915.500 586.896 M 317.783 692.867 C 310.789 697.615, 305.051 701.727, 305.033 702.005 C 304.979 702.829, 326.001 740.493, 338.099 761.250 C 371.540 818.624, 404.291 871.709, 444.674 934 C 493.834 1009.827, 495.995 1013.026, 500.669 1016.878 C 503.949 1019.583, 505.234 1020, 510.278 1020 C 516.971 1020, 520.635 1018.411, 524.480 1013.841 C 526.979 1010.871, 527.170 1010.038, 526.842 1003.533 L 526.484 996.455 507.286 967.478 C 441.568 868.284, 391.554 787.389, 349.642 712.500 C 334.169 684.854, 333.589 683.936, 331.711 684.117 C 331.045 684.181, 324.777 688.118, 317.783 692.867 M 968.854 1041.226 C 968.121 1042.602, 968.411 1200.892, 969.149 1202.275 C 970.006 1203.880, 971.639 1204.023, 986.298 1203.775 L 1002.500 1203.500 1002.773 1185.034 L 1003.047 1166.567 1021.531 1185.034 L 1040.016 1203.500 1060.635 1203.808 C 1071.975 1203.978, 1081.961 1203.845, 1082.825 1203.514 C 1083.975 1203.072, 1077.780 1196.291, 1059.698 1178.198 C 1046.114 1164.606, 1035 1153.131, 1035 1152.697 C 1035 1152.264, 1044.787 1141.995, 1056.750 1129.877 C 1068.713 1117.759, 1078.650 1107.429, 1078.833 1106.922 C 1079.030 1106.377, 1070.227 1106, 1057.322 1106 L 1035.477 1106 1019.488 1122.012 L 1003.500 1138.025 1003 1089.762 L 1002.500 1041.500 985.750 1041.226 C 976.538 1041.075, 968.934 1041.075, 968.854 1041.226 M 613.667 1047.667 C 613.300 1048.033, 613 1083.125, 613 1125.648 L 613 1202.962 615.250 1203.517 C 616.487 1203.822, 624.700 1203.943, 633.500 1203.786 L 649.500 1203.500 649.765 1174.861 L 650.030 1146.222 667.765 1145.755 C 682.618 1145.363, 686.462 1144.938, 691.419 1143.139 C 703.482 1138.762, 714.395 1129.199, 719.401 1118.618 C 724.534 1107.767, 725.155 1090.601, 720.885 1077.604 C 716.896 1065.463, 708.753 1057.513, 694.500 1051.845 C 686.634 1048.717, 686.124 1048.651, 664 1047.913 C 634.614 1046.933, 614.498 1046.835, 613.667 1047.667 M 650 1097.148 L 650 1117.296 658.750 1116.684 C 678.050 1115.335, 684.995 1109.968, 684.998 1096.398 C 685 1089.796, 682.892 1085.420, 678 1081.870 C 674.377 1079.240, 664.619 1077, 656.790 1077 L 650 1077 650 1097.148 M 771.251 1104.516 C 753.999 1108.264, 739.800 1122.960, 735.418 1141.603 C 733.289 1150.663, 733.969 1165.154, 736.914 1173.500 C 741.794 1187.326, 753.077 1199.293, 765.300 1203.606 C 780.606 1209.006, 799.236 1206.163, 809.865 1196.805 L 813.500 1193.604 814 1198.552 L 814.500 1203.500 831 1203.500 L 847.500 1203.500 847.500 1155 L 847.500 1106.500 830.500 1106.500 L 813.500 1106.500 813.185 1110.319 L 812.871 1114.139 809.685 1111.719 C 804.966 1108.134, 797.545 1105.132, 790.628 1104.010 C 782.794 1102.738, 778.978 1102.838, 771.251 1104.516 M 927.197 1104.559 C 920.539 1106.351, 919.232 1107.060, 912.539 1112.512 L 907.102 1116.940 906.801 1111.720 L 906.500 1106.500 889.250 1106.226 L 872 1105.953 872.015 1153.726 C 872.024 1180.002, 872.395 1202.074, 872.840 1202.776 C 873.455 1203.744, 877.586 1203.985, 889.979 1203.776 L 906.308 1203.500 906.521 1177 C 906.657 1160.123, 907.159 1149.149, 907.905 1146.781 C 909.436 1141.923, 913.586 1137.071, 917.671 1135.364 C 922.522 1133.337, 932.672 1133.668, 937.859 1136.022 C 940.257 1137.110, 942.621 1138, 943.112 1138 C 943.998 1138, 957 1111.769, 957 1109.981 C 957 1108.521, 951.680 1106.137, 944.800 1104.515 C 937.124 1102.705, 934.056 1102.713, 927.197 1104.559 M 784.625 1134.415 C 779.948 1136.148, 774.671 1141.066, 772.435 1145.778 C 771.244 1148.288, 770.893 1151.219, 771.158 1156.459 C 771.644 1166.089, 774.810 1171.108, 782.666 1174.705 C 792.446 1179.182, 803.246 1176.568, 809.688 1168.165 C 817.594 1157.853, 814.039 1141.569, 802.590 1135.657 C 797.651 1133.107, 789.650 1132.553, 784.625 1134.415" stroke="none" fill="#15a6c6" fill-rule="evenodd"/><path d="M 493 58.062 C 453.202 61.006, 420.110 69.151, 384.803 84.692 C 337.547 105.493, 297.415 137.398, 260.896 183.200 C 238.081 211.814, 218.822 249.073, 207.524 286.454 C 201.558 306.195, 194.985 342.909, 196.241 349.478 C 196.506 350.865, 196.276 352, 195.731 352 C 194.128 352, 195.503 410.281, 197.442 424.500 C 203.907 471.917, 219.896 525.369, 242.317 574.524 C 245.322 581.111, 251.462 594.600, 255.962 604.500 C 272.642 641.195, 302.513 700.004, 304.870 700.790 C 305.450 700.983, 311.651 697.269, 318.649 692.536 C 325.648 687.802, 331.965 684.156, 332.687 684.433 C 334.194 685.012, 334.432 683.852, 333.093 682.450 C 331.299 680.570, 300.938 620.070, 291.969 600.500 C 286.927 589.500, 279.884 574.200, 276.318 566.500 C 258.414 527.837, 244.153 485.968, 237.052 451.216 C 221.675 375.961, 228.877 311.076, 259.440 249.500 C 290.064 187.801, 346.467 136.008, 410 111.245 C 442.282 98.663, 478.110 92.033, 514 92.002 C 532.001 91.986, 537.209 92.489, 561.875 96.621 C 599.663 102.951, 637.897 118.091, 669.500 139.238 C 698.825 158.861, 730.286 189.655, 748.148 216.220 C 763.451 238.979, 782.430 252.458, 808.416 259.021 L 820.213 262 867.883 262 C 918.838 262, 928.882 262.646, 937.559 266.483 C 940.551 267.807, 943 268.535, 943 268.102 C 943 267.029, 968.183 249.977, 969.750 249.990 C 970.438 249.995, 971 250.450, 971 251 C 971 251.550, 971.563 251.984, 972.250 251.964 C 974.250 251.905, 962.875 241.826, 956.576 238.074 C 942.390 229.627, 924.868 227.793, 861 228.071 C 825.208 228.227, 823.158 228.135, 816 226.061 C 797.272 220.635, 786.958 212.762, 773.508 193.629 C 763.503 179.397, 750.511 164.666, 732.611 147.258 C 677.558 93.718, 610.139 64.022, 530 58.017 C 515.095 56.900, 508.599 56.907, 493 58.062 M 493.500 201.620 C 443.560 208.683, 412.176 223.936, 381.710 255.950 C 368.277 270.066, 352.064 295.790, 344.992 314.209 C 338.655 330.711, 334.027 356.867, 334.011 376.267 C 333.983 410.078, 344.086 441.603, 365.014 473 C 371.460 482.670, 376.419 488.560, 386.923 499.018 C 394.390 506.453, 403.303 514.553, 406.730 517.018 C 425.843 530.769, 451.597 543.100, 468.505 546.596 C 475.625 548.069, 476.545 548.064, 480.560 546.530 C 488.410 543.532, 493.294 535.410, 491.547 528.257 C 490.588 524.330, 486.528 518.743, 483.210 516.783 C 481.650 515.862, 475.453 513.456, 469.437 511.437 C 422.534 495.692, 387.992 459.982, 373.903 412.675 C 364.671 381.677, 368.613 341.277, 383.627 313.009 C 391.694 297.819, 398.986 287.857, 410.421 276.403 C 426.985 259.812, 442.025 250.582, 464.888 242.976 C 481.502 237.448, 492.586 235.691, 511 235.666 C 534.536 235.634, 549.387 238.850, 568.213 248.056 C 581.996 254.796, 588.996 254.547, 595.270 247.091 C 604.829 235.731, 599.400 225.291, 578.912 215.638 C 557.317 205.464, 540.880 201.816, 515 201.455 C 504.825 201.312, 495.150 201.387, 493.500 201.620 M 644.500 229.037 C 617.437 231.910, 595.143 247.837, 582.262 273.500 C 578.580 280.835, 576.401 290.012, 578.093 291.058 C 578.907 291.560, 578.807 292.018, 577.750 292.633 C 576.439 293.396, 569.198 324.662, 561.036 364.798 C 559.983 369.978, 558.626 373.778, 557.425 374.911 C 556.366 375.910, 551.638 377.905, 546.918 379.344 C 534.771 383.047, 525.805 388.303, 517.554 396.558 C 504.628 409.491, 498.303 424.265, 495.539 447.986 C 492.559 473.552, 493.956 556.710, 497.309 553.358 C 497.747 552.919, 497.802 553.352, 497.431 554.318 C 496.667 556.309, 499.413 564.268, 501.446 565.955 C 502.483 566.816, 505.524 565.194, 514.895 558.784 C 521.555 554.228, 527.839 550.041, 528.859 549.479 C 530.345 548.661, 530.529 547.965, 529.786 545.979 C 529.241 544.523, 529.026 523.483, 529.265 495 C 529.624 452.217, 529.884 445.734, 531.469 440 C 533.926 431.115, 537.109 425.165, 541.664 420.946 C 547.560 415.484, 547.963 415.265, 559.714 411.144 C 574.678 405.896, 582.396 400.262, 588.677 390 C 591.464 385.445, 595.361 372.488, 594.701 369.966 C 594.419 368.885, 594.558 368, 595.011 368 C 595.941 368, 595.671 369.172, 605.053 324.500 C 608.865 306.350, 612.705 289.925, 613.586 288 C 618.304 277.695, 628.771 268.841, 641 264.812 C 647.116 262.796, 649.934 262.644, 688.751 262.234 C 729.080 261.809, 730.075 261.750, 733.227 259.626 C 738.173 256.293, 741 251.423, 741 246.238 C 741 237.461, 734.914 230.880, 725.071 229.014 C 719.011 227.864, 655.369 227.883, 644.500 229.037 M 660 279.350 C 642.277 284.214, 629.320 299.274, 624.164 321 C 619.901 338.962, 616.896 355.022, 617.588 356.142 C 618.008 356.821, 617.877 357.042, 617.274 356.669 C 616.627 356.270, 615.819 358.853, 615.119 363.556 C 613.801 372.423, 613.692 377, 614.799 377 C 615.239 377, 615.420 378.525, 615.203 380.388 C 614.403 387.238, 621.405 398.509, 629.753 403.809 C 639.324 409.886, 640.572 410.007, 692.932 409.930 C 719.094 409.891, 739.628 409.518, 738.562 409.101 C 736.982 408.482, 740.402 405.714, 757.062 394.129 C 768.303 386.311, 778.625 379.059, 780 378.013 C 782.465 376.138, 781.571 376.110, 715.750 376.056 L 649 376 649 372.723 C 649 370.920, 650.816 361.133, 653.035 350.973 C 655.254 340.813, 657.558 330.250, 658.155 327.500 C 659.875 319.565, 663.122 314.721, 668 312.807 C 669.585 312.185, 709.004 311.875, 775.750 311.960 C 861.351 312.068, 881.009 311.851, 881.049 310.797 C 881.086 309.806, 906.233 291.908, 916 285.920 C 917.897 284.756, 916.816 283.959, 909 280.755 L 903.500 278.500 784 278.307 C 691.765 278.159, 663.473 278.397, 660 279.350 M 617 432.274 C 603.869 436.266, 591.591 446.843, 585.560 459.360 C 581.848 467.064, 579.994 473.740, 581.893 472.566 C 582.502 472.190, 583 472.359, 583 472.941 C 583 473.523, 582.325 474, 581.500 474 C 579.441 474, 579.467 485.519, 581.543 493.540 C 583.445 500.890, 586.787 507.999, 588.339 508.002 C 588.978 508.002, 594.358 504.741, 600.296 500.754 C 610.211 494.095, 611.037 493.300, 610.415 491.002 C 607.688 480.935, 608.470 474.421, 613.279 467.155 C 616.134 462.841, 622.677 459.121, 628.874 458.290 C 634.321 457.559, 642.928 460.323, 646.704 464.015 L 649.866 467.107 656.183 462.849 C 659.657 460.508, 664.443 457.135, 666.818 455.354 C 669.506 453.338, 671.772 452.346, 672.818 452.727 C 674.239 453.244, 674.194 452.964, 672.529 450.920 C 665.095 441.795, 656.696 435.629, 648.019 432.929 C 644.932 431.968, 638.377 430.915, 633.453 430.588 C 625.869 430.085, 623.353 430.343, 617 432.274 M 261.241 1046.952 C 251.783 1049.509, 246.467 1051.911, 239.330 1056.856 C 219.338 1070.705, 207.940 1089.936, 204.911 1114.928 C 199.956 1155.812, 224.049 1193.742, 261.545 1204.089 C 271.740 1206.902, 288.202 1207.090, 298.500 1204.512 C 324.240 1198.066, 341.764 1182.720, 350.158 1159.275 C 351.805 1154.675, 352.331 1150.210, 352.741 1137.327 C 353.024 1128.432, 352.964 1119.995, 352.609 1118.577 L 351.962 1116 315.981 1116 L 280 1116 280 1130 L 280 1144 297.636 1144 L 315.272 1144 314.632 1148.669 C 312.734 1162.512, 299.132 1172.406, 282 1172.403 C 273.598 1172.401, 267.701 1170.307, 260.878 1164.903 C 255.820 1160.898, 249.340 1151.370, 246.751 1144.133 C 244.240 1137.115, 243.306 1121.661, 244.922 1113.876 C 247.785 1100.085, 257.689 1086.265, 268.500 1080.977 C 272.725 1078.910, 274.972 1078.529, 283 1078.516 C 295.712 1078.495, 302.495 1081.459, 311.019 1090.762 C 314.261 1094.300, 317.288 1097.039, 317.744 1096.848 C 319.565 1096.086, 340 1073.094, 340 1071.809 C 340 1069.789, 330.352 1060.727, 324 1056.781 C 310.252 1048.240, 301.984 1045.945, 283 1045.404 C 270.830 1045.056, 267.334 1045.305, 261.241 1046.952 M 406 1104.073 C 391.276 1106.654, 375.111 1118.876, 368.448 1132.463 C 356.746 1156.328, 364.319 1182.610, 387.350 1198.058 C 396.289 1204.053, 404.353 1206.243, 417.500 1206.246 C 434.182 1206.249, 446.736 1202.154, 456.882 1193.399 C 461.254 1189.627, 467 1182.485, 467 1180.823 C 467 1180.341, 461.577 1177.277, 454.948 1174.015 L 442.896 1168.083 437.162 1172.536 C 430.066 1178.046, 422.932 1179.750, 414.388 1177.977 C 405.999 1176.235, 399 1168.983, 399 1162.032 C 399 1160.028, 399.481 1160, 434.150 1160 L 469.299 1160 468.674 1151.250 C 468.012 1141.975, 466.024 1133.943, 462.846 1127.705 C 458.207 1118.596, 446.711 1109.535, 435.337 1106.022 C 427.769 1103.685, 413.589 1102.743, 406 1104.073 M 526.500 1104.054 C 501.376 1107.966, 482.995 1125.024, 479.954 1147.250 C 476.273 1174.149, 491.530 1196.758, 518.267 1204.029 C 528.536 1206.821, 545.178 1207.081, 555.010 1204.602 C 570.543 1200.687, 584.366 1190.142, 590.878 1177.241 C 597.369 1164.384, 597.360 1146.856, 590.856 1133.171 C 585.015 1120.878, 570.357 1109.412, 555.556 1105.557 C 548.042 1103.599, 534.061 1102.876, 526.500 1104.054 M 412.275 1126.921 C 406.265 1128.442, 402.193 1132.199, 400.537 1137.750 L 399.865 1140 416.933 1140 C 435.965 1140, 436.092 1139.944, 432.040 1133.299 C 428.702 1127.823, 419.913 1124.987, 412.275 1126.921 M 529.637 1134.465 C 514.761 1139.768, 511.153 1161.025, 523.316 1171.704 C 537.340 1184.017, 558.956 1173.886, 558.956 1155 C 558.956 1139.302, 544.490 1129.170, 529.637 1134.465" stroke="none" fill="#066d84" fill-rule="evenodd"/></svg>