<svg xmlns="http://www.w3.org/2000/svg" width="1030" height="1031" viewBox="0 0 1030 1031" version="1.1"><path d="M 844.924 244.510 C 838.091 249.191, 832.326 253.539, 832.112 254.173 C 831.899 254.807, 832.368 255.815, 833.153 256.413 C 835.938 258.532, 840.173 264.950, 842.054 269.899 C 843.102 272.659, 848.060 295.298, 853.070 320.208 C 863.433 371.726, 864.801 375.931, 874.269 385.399 C 880.203 391.333, 886.365 394.841, 895.457 397.460 C 911.925 402.204, 918.500 409.324, 922.736 427 C 924 432.275, 924.376 442.709, 924.729 482.352 C 924.969 509.221, 924.893 532.290, 924.560 533.617 L 923.955 536.028 799.620 535.984 C 725.798 535.959, 674.298 536.316, 672.854 536.865 C 671.517 537.374, 668.753 539.638, 666.711 541.898 C 663.321 545.651, 663 546.511, 663 551.855 C 663 559.341, 665.658 563.577, 672.501 567 L 677.500 569.500 802.500 569.810 C 894.383 570.038, 928.957 569.814, 933 568.963 C 945.013 566.435, 954.173 557.198, 956.911 544.852 C 957.456 542.393, 957.947 516.137, 958.038 484.500 C 958.225 420.003, 958.007 417.829, 949.619 400.587 C 941.423 383.739, 928.081 372.079, 910.548 366.442 C 899.613 362.927, 898.322 362.197, 896.596 358.561 C 895.774 356.829, 891.231 335.857, 886.501 311.956 C 881.770 288.055, 877.185 266.250, 876.312 263.500 C 873.224 253.781, 863.970 238, 861.358 238 C 860.611 238, 860 237.550, 860 237 C 860 234.783, 856.789 236.383, 844.924 244.510 M 795.323 278.448 C 789.370 282.545, 781.258 288.057, 777.295 290.698 C 773.332 293.339, 770.069 296.016, 770.045 296.647 C 770.015 297.397, 772.924 297.917, 778.427 298.147 C 788.168 298.555, 791.325 300.226, 794.377 306.588 C 795.968 309.906, 806.945 357.056, 806.986 360.750 C 806.997 361.738, 792.847 362, 739.533 362 L 672.066 362 655.283 373.647 C 624.186 395.227, 625.429 394.244, 628.025 395.205 C 629.280 395.669, 672.201 395.926, 723.404 395.775 L 816.500 395.500 822.500 392.693 C 830.240 389.071, 837.282 381.667, 839.607 374.707 C 842.001 367.541, 841.615 356.542, 838.467 342.193 C 827.445 291.954, 826.609 289.678, 814.891 277.960 C 811.063 274.132, 807.529 271, 807.038 271 C 806.547 271, 801.275 274.352, 795.323 278.448 M 224.360 362 C 224.360 367.225, 224.529 369.363, 224.735 366.750 C 224.941 364.137, 224.941 359.863, 224.735 357.250 C 224.529 354.637, 224.360 356.775, 224.360 362 M 803.026 417.150 C 793.090 418.344, 785.525 422.714, 775.635 432.973 C 766.742 442.198, 763.988 447.384, 761.809 459 C 759.693 470.278, 762.759 485.340, 769.035 494.500 C 773.563 501.108, 784.168 510.551, 790.851 513.925 C 820.167 528.723, 858.597 508.268, 863.341 475.339 C 866.158 455.784, 857.341 436.071, 840.854 425.061 C 830.682 418.269, 817.194 415.448, 803.026 417.150 M 553.640 442.863 C 550.060 445.413, 545.308 448.762, 543.079 450.305 C 539.276 452.938, 539.114 453.246, 540.448 455.305 C 541.230 456.512, 542.412 459.676, 543.075 462.335 C 545.629 472.581, 540.478 483.590, 530.895 488.365 C 521.474 493.059, 510.445 491.013, 503.335 483.250 C 500.816 480.500, 499.583 479.798, 498.547 480.523 C 497.779 481.060, 492.642 484.425, 487.131 488 C 481.619 491.575, 477.085 494.785, 477.055 495.133 C 477.025 495.482, 480.243 498.991, 484.207 502.931 C 505.390 523.988, 536.144 524.114, 556.953 503.230 C 569.626 490.511, 574.532 474.167, 570.888 456.799 C 569.442 449.903, 564.181 439.281, 561.919 438.689 C 560.867 438.414, 557.506 440.108, 553.640 442.863 M 805.843 444.915 C 797.740 447.545, 791.610 454.586, 789.764 463.387 C 788.407 469.858, 789.402 474.089, 793.976 481.301 C 804.063 497.206, 830.066 492.324, 835.114 473.577 C 837.722 463.890, 832.759 451.869, 824.207 447.164 C 819.531 444.592, 810.316 443.464, 805.843 444.915 M 415.714 536.623 C 411.721 540.318, 391.689 552.926, 390.742 552.340 C 388.630 551.035, 394 557.822, 397.262 560.581 C 399.043 562.087, 403.425 564.710, 407 566.410 L 413.500 569.500 513.215 570 C 624.801 570.560, 615.467 569.829, 616.599 578.091 C 617.488 584.580, 614.458 594.652, 606.242 612.512 C 591.637 644.263, 589.318 649.105, 579.187 669 C 540.912 744.163, 492.025 825.044, 432.698 911.354 C 424.636 923.083, 418.791 932.597, 418.415 934.604 C 417.444 939.775, 418.770 944.668, 422.198 948.572 C 426.208 953.139, 429.914 955, 435 955 C 443.361 955, 446.288 952.131, 463.561 927 C 533.076 825.860, 592.435 724.489, 631.910 639.500 C 647.534 605.863, 651 594.904, 651 579.147 C 651 559.187, 640.355 543.991, 622.500 538.467 L 614.500 535.992 515.714 535.746 C 443.719 535.567, 416.599 535.805, 415.714 536.623 M 430.153 572.318 C 425.320 574.134, 420.606 579.033, 419.211 583.691 C 417.465 589.516, 417.687 608.083, 419.595 615.936 C 422.435 627.624, 428.314 638.347, 436.325 646.450 C 447.471 657.724, 454.996 661.599, 471.500 664.561 C 499.711 669.625, 526.106 659.994, 540.181 639.500 C 542.825 635.650, 546.429 628.900, 548.190 624.500 C 551.253 616.847, 551.409 615.784, 551.783 600 L 552.173 583.500 549.176 579.383 C 546.270 575.389, 539.188 571, 535.652 571 C 532.790 571, 526.664 573.949, 523.773 576.718 C 520.023 580.310, 519.063 583.848, 518.104 597.619 C 517.143 611.410, 514.960 617.680, 509.142 623.362 C 503.810 628.568, 496.168 631, 485.140 631 C 469.141 631, 460.695 626.396, 455.513 614.850 C 453.083 609.434, 452.610 606.837, 452.068 595.920 C 451.518 584.827, 451.147 582.838, 449.060 579.793 C 444.241 572.760, 436.803 569.819, 430.153 572.318 M 804.500 572.896 C 795.548 577.040, 793.014 582.705, 793.006 598.590 C 792.992 622.391, 803.275 643.005, 821.096 654.905 C 828.774 660.033, 836.340 662.840, 847.500 664.702 C 884.655 670.902, 916.210 652.007, 925.633 617.915 C 926.915 613.277, 927.419 607.716, 927.453 597.841 C 927.500 584.254, 927.484 584.160, 924.493 579.841 C 920.669 574.320, 913.473 570.501, 908.610 571.413 C 903.839 572.309, 897.107 577.500, 895.390 581.609 C 894.589 583.526, 893.575 590.585, 893.136 597.297 C 892.176 611.977, 889.921 618.139, 883.411 623.870 C 877.636 628.953, 870.893 631, 859.923 631 C 838.399 631, 828.361 620.834, 827.338 598 C 827.103 592.775, 826.681 587.011, 826.399 585.190 C 825.478 579.240, 815.950 570.943, 810.128 571.022 C 809.233 571.034, 806.700 571.877, 804.500 572.896 M 206.783 678.867 C 199.789 683.615, 194.051 687.727, 194.033 688.005 C 193.847 690.855, 251.316 789.309, 282.171 839 C 306.602 878.346, 373.429 981.952, 383.729 996.454 L 386.959 1001 399.956 1001 C 412.713 1001, 412.984 1000.954, 414.590 998.503 C 415.817 996.630, 416.131 994.316, 415.844 989.248 L 415.462 982.490 391.392 945.995 C 378.153 925.923, 365.291 906.350, 362.809 902.500 C 360.328 898.650, 353.777 888.489, 348.252 879.920 C 309.915 820.464, 268.994 752.734, 238.642 698.500 C 223.169 670.854, 222.589 669.936, 220.711 670.117 C 220.045 670.181, 213.777 674.118, 206.783 678.867" stroke="none" fill="#19a6c5" fill-rule="evenodd"/><path d="M 382 44.062 C 342.202 47.006, 309.110 55.151, 273.803 70.692 C 226.547 91.493, 186.415 123.398, 149.896 169.200 C 127.081 197.814, 107.822 235.073, 96.524 272.454 C 90.558 292.195, 83.985 328.909, 85.241 335.478 C 85.506 336.865, 85.276 338, 84.731 338 C 83.128 338, 84.503 396.281, 86.442 410.500 C 92.907 457.917, 108.896 511.369, 131.317 560.524 C 134.322 567.111, 140.462 580.600, 144.962 590.500 C 161.642 627.195, 191.513 686.004, 193.870 686.790 C 194.450 686.983, 200.651 683.269, 207.649 678.536 C 214.648 673.802, 220.965 670.156, 221.687 670.433 C 223.194 671.012, 223.432 669.852, 222.093 668.450 C 220.299 666.570, 189.938 606.070, 180.969 586.500 C 175.927 575.500, 168.884 560.200, 165.318 552.500 C 147.414 513.837, 133.153 471.968, 126.052 437.216 C 110.675 361.961, 117.877 297.076, 148.440 235.500 C 179.064 173.801, 235.467 122.008, 299 97.245 C 331.282 84.663, 367.110 78.033, 403 78.002 C 421.001 77.986, 426.209 78.489, 450.875 82.621 C 488.663 88.951, 526.897 104.091, 558.500 125.238 C 587.825 144.861, 619.286 175.655, 637.148 202.220 C 652.451 224.979, 671.430 238.458, 697.416 245.021 L 709.213 248 756.883 248 C 807.838 248, 817.882 248.646, 826.559 252.483 C 829.551 253.807, 832 254.535, 832 254.102 C 832 253.029, 857.183 235.977, 858.750 235.990 C 859.438 235.995, 860 236.450, 860 237 C 860 237.550, 860.563 237.984, 861.250 237.964 C 863.250 237.905, 851.875 227.826, 845.576 224.074 C 831.307 215.577, 814.833 213.847, 750.500 214.089 C 714.233 214.226, 712.158 214.133, 705 212.060 C 687.637 207.031, 676.891 199.441, 666.531 184.886 C 646.937 157.361, 616.552 125.872, 591.774 107.413 C 540.566 69.267, 485.291 48.985, 419 44.017 C 404.095 42.900, 397.599 42.907, 382 44.062 M 382.500 187.620 C 332.560 194.683, 301.176 209.936, 270.710 241.950 C 257.277 256.066, 241.064 281.790, 233.992 300.209 C 227.655 316.711, 223.027 342.867, 223.011 362.267 C 222.983 396.078, 233.086 427.603, 254.014 459 C 260.460 468.670, 265.419 474.560, 275.923 485.018 C 283.390 492.453, 292.303 500.553, 295.730 503.018 C 321.400 521.486, 357.882 536.504, 368.534 532.989 C 375.859 530.571, 381 523.924, 381 516.870 C 381 512.631, 376.812 505.665, 372.759 503.161 C 370.966 502.054, 364.550 499.487, 358.500 497.457 C 311.535 481.695, 277 446.009, 262.903 398.675 C 253.671 367.677, 257.613 327.277, 272.627 299.009 C 280.694 283.819, 287.986 273.857, 299.421 262.403 C 315.985 245.812, 331.025 236.582, 353.888 228.976 C 370.502 223.448, 381.586 221.691, 400 221.666 C 423.536 221.634, 438.387 224.850, 457.213 234.056 C 470.996 240.796, 477.996 240.547, 484.270 233.091 C 493.829 221.731, 488.400 211.291, 467.912 201.638 C 446.317 191.464, 429.880 187.816, 404 187.455 C 393.825 187.312, 384.150 187.387, 382.500 187.620 M 533.500 215.037 C 506.437 217.910, 484.143 233.837, 471.262 259.500 C 467.580 266.835, 465.401 276.012, 467.093 277.058 C 467.907 277.560, 467.807 278.018, 466.750 278.633 C 465.439 279.396, 458.198 310.662, 450.036 350.798 C 448.983 355.978, 447.626 359.778, 446.425 360.911 C 445.366 361.910, 440.638 363.905, 435.918 365.344 C 423.771 369.047, 414.805 374.303, 406.554 382.558 C 393.628 395.491, 387.303 410.265, 384.539 433.986 C 381.559 459.552, 382.956 542.710, 386.309 539.358 C 386.747 538.919, 386.802 539.352, 386.431 540.318 C 385.667 542.309, 388.413 550.268, 390.446 551.955 C 391.483 552.816, 394.524 551.194, 403.895 544.784 C 410.555 540.228, 416.839 536.041, 417.859 535.479 C 419.345 534.661, 419.529 533.965, 418.786 531.979 C 418.241 530.523, 418.026 509.483, 418.265 481 C 418.624 438.217, 418.884 431.734, 420.469 426 C 422.926 417.115, 426.109 411.165, 430.664 406.946 C 436.560 401.484, 436.963 401.265, 448.714 397.144 C 463.694 391.890, 471.511 386.178, 477.643 376 C 480.627 371.048, 484.293 359.316, 483.748 356.463 C 483.496 355.142, 483.614 354.261, 484.011 354.507 C 484.408 354.752, 485.218 352.601, 485.811 349.727 C 494.830 306.008, 501.295 276.820, 502.586 274 C 507.304 263.695, 517.771 254.841, 530 250.812 C 536.116 248.796, 538.934 248.644, 577.751 248.234 C 618.080 247.809, 619.075 247.750, 622.227 245.626 C 627.173 242.293, 630 237.423, 630 232.238 C 630 223.461, 623.914 216.880, 614.071 215.014 C 608.011 213.864, 544.369 213.883, 533.500 215.037 M 549 265.360 C 531.312 270.175, 518.320 285.271, 513.164 307 C 508.901 324.962, 505.896 341.022, 506.588 342.142 C 507.008 342.821, 506.877 343.042, 506.274 342.669 C 505.627 342.270, 504.819 344.853, 504.119 349.556 C 502.801 358.423, 502.692 363, 503.799 363 C 504.239 363, 504.420 364.525, 504.203 366.388 C 503.403 373.238, 510.405 384.509, 518.753 389.809 C 528.324 395.886, 529.572 396.007, 581.932 395.930 C 608.094 395.891, 628.628 395.518, 627.562 395.101 C 625.982 394.482, 629.402 391.714, 646.062 380.129 C 657.303 372.311, 667.625 365.059, 669 364.013 C 671.465 362.138, 670.571 362.110, 604.750 362.056 L 538 362 538 358.683 C 538 355.090, 547.250 312.109, 549.040 307.385 C 550.440 303.691, 553.811 300.058, 557 298.807 C 558.585 298.185, 598.004 297.875, 664.750 297.960 C 750.349 298.068, 770.010 297.851, 770.054 296.797 C 770.106 295.556, 772.526 293.812, 795.688 278.316 C 801.291 274.567, 805.904 271.218, 805.938 270.873 C 806.028 269.965, 797.062 266.253, 791.910 265.065 C 785.073 263.489, 554.846 263.769, 549 265.360 M 224.360 362 C 224.360 367.225, 224.529 369.363, 224.735 366.750 C 224.941 364.137, 224.941 359.863, 224.735 357.250 C 224.529 354.637, 224.360 356.775, 224.360 362 M 506 418.274 C 492.869 422.266, 480.591 432.843, 474.560 445.360 C 470.848 453.064, 468.994 459.740, 470.893 458.566 C 471.502 458.190, 472 458.359, 472 458.941 C 472 459.523, 471.325 460, 470.500 460 C 469.471 460, 469.005 461.021, 469.015 463.250 C 469.027 465.716, 469.264 466.138, 470 465 C 470.699 463.919, 470.941 464.757, 470.866 468 C 470.772 472.104, 470.696 472.236, 470 469.500 L 469.237 466.500 469.118 470.040 C 468.882 477.119, 474.673 493.998, 477.339 494.002 C 477.978 494.002, 483.358 490.741, 489.296 486.754 C 499.211 480.095, 500.037 479.300, 499.415 477.002 C 496.688 466.935, 497.470 460.421, 502.279 453.155 C 505.134 448.841, 511.677 445.121, 517.874 444.290 C 523.321 443.559, 531.928 446.323, 535.704 450.015 L 538.866 453.107 545.183 448.849 C 548.657 446.508, 553.443 443.135, 555.818 441.354 C 558.506 439.338, 560.772 438.346, 561.818 438.727 C 563.239 439.244, 563.194 438.964, 561.529 436.920 C 554.095 427.795, 545.696 421.629, 537.019 418.929 C 533.932 417.968, 527.377 416.915, 522.453 416.588 C 514.869 416.085, 512.353 416.343, 506 418.274" stroke="none" fill="#066d83" fill-rule="evenodd"/></svg>